%TF.GenerationSoftware,KiCad,Pcbnew,8.0.0*%
%TF.CreationDate,2024-03-26T17:27:08+01:00*%
%TF.ProjectId,som-exp-host,736f6d2d-6578-4702-9d68-6f73742e6b69,rev?*%
%TF.SameCoordinates,Original*%
%TF.FileFunction,Profile,NP*%
%FSLAX46Y46*%
G04 Gerber Fmt 4.6, Leading zero omitted, Abs format (unit mm)*
G04 Created by KiCad (PCBNEW 8.0.0) date 2024-03-26 17:27:08*
%MOMM*%
%LPD*%
G01*
G04 APERTURE LIST*
%TA.AperFunction,Profile*%
%ADD10C,0.050000*%
%TD*%
G04 APERTURE END LIST*
D10*
X94000000Y-51250000D02*
G75*
G02*
X95000000Y-50250000I1000000J0D01*
G01*
X194000000Y-117250000D02*
X194000000Y-122250000D01*
X95000000Y-123250000D02*
G75*
G02*
X94000000Y-122250000I0J1000000D01*
G01*
X94000000Y-56250000D02*
X94000000Y-51250000D01*
X94000000Y-56250000D02*
G75*
G02*
X91000000Y-59250000I-3000000J0D01*
G01*
X194000000Y-122250000D02*
G75*
G02*
X193000000Y-123250000I-1000000J0D01*
G01*
X91000000Y-114250000D02*
X87000000Y-114250000D01*
X201000000Y-59250000D02*
G75*
G02*
X202000000Y-60250000I0J-1000000D01*
G01*
X91000000Y-114250000D02*
G75*
G02*
X94000000Y-117250000I0J-3000000D01*
G01*
X87000000Y-114250000D02*
G75*
G02*
X86000000Y-113250000I0J1000000D01*
G01*
X197000000Y-59250000D02*
G75*
G02*
X194000000Y-56250000I0J3000000D01*
G01*
X202000000Y-60250000D02*
X202000000Y-113250000D01*
X193000000Y-123250000D02*
X95000000Y-123250000D01*
X202000000Y-113250000D02*
G75*
G02*
X201000000Y-114250000I-1000000J0D01*
G01*
X94000000Y-122250000D02*
X94000000Y-117250000D01*
X197000000Y-59250000D02*
X201000000Y-59250000D01*
X201000000Y-114250000D02*
X197000000Y-114250000D01*
X194000000Y-117250000D02*
G75*
G02*
X197000000Y-114250000I3000000J0D01*
G01*
X194000000Y-51250000D02*
X194000000Y-56250000D01*
X193000000Y-50250000D02*
G75*
G02*
X194000000Y-51250000I0J-1000000D01*
G01*
X87000000Y-59250000D02*
X91000000Y-59250000D01*
X86000000Y-113250000D02*
X86000000Y-60250000D01*
X95000000Y-50250000D02*
X193000000Y-50250000D01*
X86000000Y-60250000D02*
G75*
G02*
X87000000Y-59250000I1000000J0D01*
G01*
M02*
