%TF.GenerationSoftware,KiCad,Pcbnew,8.0.0*%
%TF.CreationDate,2024-03-26T17:27:08+01:00*%
%TF.ProjectId,som-exp-host,736f6d2d-6578-4702-9d68-6f73742e6b69,rev?*%
%TF.SameCoordinates,Original*%
%TF.FileFunction,Paste,Top*%
%TF.FilePolarity,Positive*%
%FSLAX46Y46*%
G04 Gerber Fmt 4.6, Leading zero omitted, Abs format (unit mm)*
G04 Created by KiCad (PCBNEW 8.0.0) date 2024-03-26 17:27:08*
%MOMM*%
%LPD*%
G01*
G04 APERTURE LIST*
G04 Aperture macros list*
%AMRoundRect*
0 Rectangle with rounded corners*
0 $1 Rounding radius*
0 $2 $3 $4 $5 $6 $7 $8 $9 X,Y pos of 4 corners*
0 Add a 4 corners polygon primitive as box body*
4,1,4,$2,$3,$4,$5,$6,$7,$8,$9,$2,$3,0*
0 Add four circle primitives for the rounded corners*
1,1,$1+$1,$2,$3*
1,1,$1+$1,$4,$5*
1,1,$1+$1,$6,$7*
1,1,$1+$1,$8,$9*
0 Add four rect primitives between the rounded corners*
20,1,$1+$1,$2,$3,$4,$5,0*
20,1,$1+$1,$4,$5,$6,$7,0*
20,1,$1+$1,$6,$7,$8,$9,0*
20,1,$1+$1,$8,$9,$2,$3,0*%
G04 Aperture macros list end*
%ADD10RoundRect,0.250000X-0.450000X0.350000X-0.450000X-0.350000X0.450000X-0.350000X0.450000X0.350000X0*%
%ADD11RoundRect,0.250000X0.450000X-0.325000X0.450000X0.325000X-0.450000X0.325000X-0.450000X-0.325000X0*%
%ADD12RoundRect,0.250000X0.475000X-0.337500X0.475000X0.337500X-0.475000X0.337500X-0.475000X-0.337500X0*%
%ADD13RoundRect,0.250000X0.450000X-0.350000X0.450000X0.350000X-0.450000X0.350000X-0.450000X-0.350000X0*%
%ADD14RoundRect,0.250000X-0.450000X0.325000X-0.450000X-0.325000X0.450000X-0.325000X0.450000X0.325000X0*%
%ADD15R,0.450000X1.475000*%
%ADD16RoundRect,0.250000X-0.337500X-0.475000X0.337500X-0.475000X0.337500X0.475000X-0.337500X0.475000X0*%
G04 APERTURE END LIST*
D10*
%TO.C,R3*%
X179900000Y-115123400D03*
X179900000Y-117123400D03*
%TD*%
D11*
%TO.C,LED6*%
X173505000Y-120955000D03*
X173505000Y-118905000D03*
%TD*%
D12*
%TO.C,C7*%
X103000000Y-92351700D03*
X103000000Y-90276700D03*
%TD*%
D11*
%TO.C,LED4*%
X177765000Y-120955000D03*
X177765000Y-118905000D03*
%TD*%
D13*
%TO.C,R1*%
X130014400Y-83919600D03*
X130014400Y-81919600D03*
%TD*%
D14*
%TO.C,LED1*%
X129969400Y-77425600D03*
X129969400Y-79475600D03*
%TD*%
D15*
%TO.C,U14*%
X111464400Y-92124000D03*
X110814400Y-92124000D03*
X110164400Y-92124000D03*
X109514400Y-92124000D03*
X108864400Y-92124000D03*
X108214400Y-92124000D03*
X107564400Y-92124000D03*
X106914400Y-92124000D03*
X106264400Y-92124000D03*
X105614400Y-92124000D03*
X105614400Y-98000000D03*
X106264400Y-98000000D03*
X106914400Y-98000000D03*
X107564400Y-98000000D03*
X108214400Y-98000000D03*
X108864400Y-98000000D03*
X109514400Y-98000000D03*
X110164400Y-98000000D03*
X110814400Y-98000000D03*
X111464400Y-98000000D03*
%TD*%
D16*
%TO.C,C6*%
X110962500Y-89314200D03*
X113037500Y-89314200D03*
%TD*%
D10*
%TO.C,R4*%
X177770000Y-115123400D03*
X177770000Y-117123400D03*
%TD*%
%TO.C,R6*%
X173510000Y-115123400D03*
X173510000Y-117123400D03*
%TD*%
D11*
%TO.C,LED3*%
X179895000Y-120955000D03*
X179895000Y-118905000D03*
%TD*%
D10*
%TO.C,R5*%
X175640000Y-115123400D03*
X175640000Y-117123400D03*
%TD*%
D13*
%TO.C,R2*%
X127242582Y-83919600D03*
X127242582Y-81919600D03*
%TD*%
D14*
%TO.C,LED2*%
X127197582Y-77425600D03*
X127197582Y-79475600D03*
%TD*%
D11*
%TO.C,LED5*%
X175635000Y-120955000D03*
X175635000Y-118905000D03*
%TD*%
M02*
