%TF.GenerationSoftware,KiCad,Pcbnew,8.0.0*%
%TF.CreationDate,2024-03-26T17:51:24+01:00*%
%TF.ProjectId,som-exp-host,736f6d2d-6578-4702-9d68-6f73742e6b69,rev?*%
%TF.SameCoordinates,Original*%
%TF.FileFunction,Plated,1,4,PTH,Mixed*%
%TF.FilePolarity,Positive*%
%FSLAX46Y46*%
G04 Gerber Fmt 4.6, Leading zero omitted, Abs format (unit mm)*
G04 Created by KiCad (PCBNEW 8.0.0) date 2024-03-26 17:51:24*
%MOMM*%
%LPD*%
G01*
G04 APERTURE LIST*
%TA.AperFunction,ViaDrill*%
%ADD10C,0.300000*%
%TD*%
%TA.AperFunction,ViaDrill*%
%ADD11C,0.500000*%
%TD*%
%TA.AperFunction,ComponentDrill*%
%ADD12C,1.000000*%
%TD*%
G04 aperture for slot hole*
%TA.AperFunction,ComponentDrill*%
%ADD13C,1.000000*%
%TD*%
%TA.AperFunction,ComponentDrill*%
%ADD14C,1.700000*%
%TD*%
%TA.AperFunction,ComponentDrill*%
%ADD15C,1.940000*%
%TD*%
%TA.AperFunction,ComponentDrill*%
%ADD16C,2.700000*%
%TD*%
G04 APERTURE END LIST*
D10*
X101000000Y-90314200D03*
X105709792Y-100889166D03*
X106700000Y-81900000D03*
X106700000Y-101300000D03*
X108214400Y-90439200D03*
X108700000Y-75700000D03*
X115000000Y-94500000D03*
X121789800Y-115130000D03*
X125069400Y-77400600D03*
X125500000Y-91900000D03*
X127289800Y-116630000D03*
X127789800Y-112630000D03*
X134050000Y-121000000D03*
X142500000Y-74500000D03*
X142500000Y-79000000D03*
X144000000Y-73500000D03*
X144000000Y-81500000D03*
X155000000Y-71500000D03*
X155000000Y-90500000D03*
X156000000Y-93000000D03*
X159000000Y-108250000D03*
X159000000Y-115000000D03*
X159500000Y-89500000D03*
X159500000Y-98100000D03*
X161500000Y-88500000D03*
X161524600Y-95524600D03*
X167000000Y-63750000D03*
X189500000Y-110500000D03*
X190200000Y-113100000D03*
D11*
X94500000Y-97600000D03*
X112950000Y-108950000D03*
X114200000Y-97400000D03*
X115500000Y-87000000D03*
X125500000Y-100750000D03*
X127900000Y-94600000D03*
X131400000Y-108200000D03*
X131500000Y-114900000D03*
X139000000Y-120014300D03*
X139250000Y-98700000D03*
X142000000Y-72000000D03*
X145000000Y-94000000D03*
X147500000Y-60000000D03*
X148750000Y-112750000D03*
X150000000Y-72000000D03*
X152700000Y-55250000D03*
X169000000Y-61300000D03*
X169700000Y-114950000D03*
X170798800Y-78404600D03*
X174798800Y-61404600D03*
X175300000Y-98800000D03*
X180298800Y-80904600D03*
D12*
%TO.C,J7*%
X95686900Y-76790600D03*
X95686900Y-79330600D03*
X95686900Y-81870600D03*
X95686900Y-84410600D03*
X95686900Y-86950600D03*
D13*
%TO.C,J5*%
X97950000Y-56300000D02*
X97950000Y-58500000D01*
D12*
%TO.C,J7*%
X98226900Y-76790600D03*
X98226900Y-79330600D03*
X98226900Y-81870600D03*
X98226900Y-84410600D03*
X98226900Y-86950600D03*
D13*
%TO.C,J5*%
X101650000Y-54000000D02*
X103850000Y-54000000D01*
X101450000Y-60300000D02*
X104050000Y-60300000D01*
D12*
%TO.C,J1*%
X103524600Y-105970000D03*
X104794600Y-103430000D03*
X106064600Y-105970000D03*
X107334600Y-103430000D03*
X108604600Y-105970000D03*
X109874600Y-103430000D03*
X111144600Y-105970000D03*
X112414600Y-103430000D03*
X117494600Y-105970000D03*
X118764600Y-103430000D03*
X120034600Y-105970000D03*
X121304600Y-103430000D03*
X122574600Y-105970000D03*
X123844600Y-103430000D03*
X125114600Y-105970000D03*
X126384600Y-103430000D03*
X131464600Y-105970000D03*
X132734600Y-103430000D03*
X134004600Y-105970000D03*
%TO.C,U2*%
X135087000Y-52378000D03*
X135087000Y-54918000D03*
X135087000Y-57458000D03*
X135087000Y-59998000D03*
X135087000Y-62538000D03*
X135087000Y-65078000D03*
X135087000Y-67618000D03*
X135087000Y-70158000D03*
X135087000Y-72698000D03*
X135087000Y-75238000D03*
X135087000Y-77778000D03*
X135087000Y-80318000D03*
X135087000Y-82858000D03*
%TO.C,J1*%
X135274600Y-103430000D03*
X136544600Y-105970000D03*
%TO.C,U2*%
X137627000Y-52378000D03*
X137627000Y-54918000D03*
X137627000Y-57458000D03*
X137627000Y-59998000D03*
X137627000Y-62538000D03*
X137627000Y-65078000D03*
X137627000Y-67618000D03*
X137627000Y-70158000D03*
X137627000Y-72698000D03*
X137627000Y-75238000D03*
X137627000Y-77778000D03*
X137627000Y-80318000D03*
X137627000Y-82858000D03*
%TO.C,J1*%
X137814600Y-103430000D03*
X139084600Y-105970000D03*
X140354600Y-103430000D03*
%TO.C,U2*%
X157977000Y-52378000D03*
X157977000Y-54918000D03*
X157977000Y-57458000D03*
X157977000Y-59998000D03*
X157977000Y-62538000D03*
X157977000Y-65078000D03*
X157977000Y-67618000D03*
X157977000Y-70158000D03*
X157977000Y-72698000D03*
X157977000Y-75238000D03*
X157977000Y-77778000D03*
X157977000Y-80318000D03*
X157977000Y-82858000D03*
X160517000Y-52378000D03*
X160517000Y-54918000D03*
X160517000Y-57458000D03*
X160517000Y-59998000D03*
X160517000Y-62538000D03*
X160517000Y-65078000D03*
X160517000Y-67618000D03*
X160517000Y-70158000D03*
X160517000Y-72698000D03*
X160517000Y-75238000D03*
X160517000Y-77778000D03*
X160517000Y-80318000D03*
X160517000Y-82858000D03*
%TO.C,U1*%
X167680000Y-75160000D03*
X167680000Y-77700000D03*
X167680000Y-80240000D03*
X167680000Y-82780000D03*
X167680000Y-85320000D03*
X167680000Y-87860000D03*
X167680000Y-90400000D03*
X167680000Y-92940000D03*
X167680000Y-95480000D03*
X167680000Y-98020000D03*
X167680000Y-100560000D03*
X167680000Y-103100000D03*
X167680000Y-105640000D03*
X167680000Y-108180000D03*
X188000000Y-75160000D03*
X188000000Y-77700000D03*
X188000000Y-80240000D03*
X188000000Y-82780000D03*
X188000000Y-85320000D03*
X188000000Y-87860000D03*
X188000000Y-90400000D03*
X188000000Y-92940000D03*
X188000000Y-95480000D03*
X188000000Y-98020000D03*
X188000000Y-100560000D03*
X188000000Y-103100000D03*
X188000000Y-105640000D03*
X188000000Y-108180000D03*
%TO.C,J6*%
X195130800Y-82340000D03*
X195130800Y-84880000D03*
X195130800Y-87420000D03*
X195130800Y-89960000D03*
X195130800Y-92500000D03*
X195130800Y-95040000D03*
D14*
%TO.C,J1*%
X99519600Y-116000000D03*
X114954600Y-102160000D03*
X128924600Y-102160000D03*
X144359600Y-116000000D03*
D15*
%TO.C,J2*%
X114192000Y-53000000D03*
X114192000Y-68300000D03*
%TO.C,J3*%
X124192000Y-53000000D03*
X124192000Y-68300000D03*
D16*
%TO.C,H1*%
X90500000Y-66250000D03*
%TO.C,H3*%
X90500000Y-106250000D03*
%TO.C,H2*%
X197500000Y-66250000D03*
%TO.C,H4*%
X197500000Y-106250000D03*
M02*
