M48
; DRILL file {KiCad 9.0.1-9.0.1-0~ubuntu24.04.1} date 2025-04-13T10:11:09+0200
; FORMAT={-:-/ absolute / metric / decimal}
; #@! TF.CreationDate,2025-04-13T10:11:09+02:00
; #@! TF.GenerationSoftware,Kicad,Pcbnew,9.0.1-9.0.1-0~ubuntu24.04.1
; #@! TF.FileFunction,Plated,1,4,PTH
FMAT,2
METRIC
; #@! TA.AperFunction,Plated,PTH,ViaDrill
T1C0.250
; #@! TA.AperFunction,Plated,PTH,ViaDrill
T2C0.350
; #@! TA.AperFunction,Plated,PTH,ViaDrill
T3C0.500
; #@! TA.AperFunction,Plated,PTH,ComponentDrill
T4C0.900
; #@! TA.AperFunction,Plated,PTH,ComponentDrill
T5C1.000
; #@! TA.AperFunction,Plated,PTH,ComponentDrill
T6C1.700
; #@! TA.AperFunction,Plated,PTH,ComponentDrill
T7C1.800
; #@! TA.AperFunction,Plated,PTH,ComponentDrill
T8C2.000
; #@! TA.AperFunction,Plated,PTH,ComponentDrill
T9C3.000
; #@! TA.AperFunction,Plated,PTH,ComponentDrill
T10C3.200
%
G90
G05
T1
X51.977Y-62.428
X52.003Y-69.998
X52.073Y-55.876
X52.146Y-54.074
X52.466Y-58.134
X52.678Y-77.296
X52.756Y-53.31
X53.001Y-67.239
X53.646Y-52.254
X53.696Y-66.544
X53.704Y-72.02
X53.747Y-76.385
X53.786Y-78.134
X53.876Y-79.544
X53.981Y-78.806
X54.066Y-53.714
X54.096Y-70.504
X54.306Y-59.824
X54.306Y-63.504
X54.43Y-72.438
X54.442Y-56.849
X54.616Y-79.674
X54.765Y-80.448
X54.796Y-56.214
X54.816Y-68.914
X54.887Y-64.024
X55.152Y-72.071
X55.19Y-78.968
X56.076Y-55.894
X57.896Y-62.08
X57.966Y-58.359
X58.006Y-81.044
X58.236Y-59.005
X58.89Y-59.304
X58.966Y-73.604
X58.981Y-80.691
X59.036Y-79.904
X59.042Y-60.554
X61.666Y-48.724
X61.826Y-49.644
X62.616Y-48.651
X62.766Y-88.101
X63.196Y-49.974
X64.046Y-50.484
X65.706Y-80.864
X65.766Y-56.554
X66.046Y-50.524
X66.486Y-80.864
X66.546Y-55.724
X66.686Y-56.554
X67.326Y-55.394
X68.106Y-55.964
X68.676Y-60.504
X69.443Y-55.941
X69.576Y-57.744
X70.226Y-86.094
X70.256Y-84.964
X70.736Y-56.144
X71.626Y-56.614
X71.746Y-55.674
X72.756Y-80.984
X72.906Y-82.744
X72.943Y-83.591
X72.956Y-78.704
X73.576Y-79.054
X73.836Y-84.354
X74.876Y-84.344
X79.736Y-67.104
X80.826Y-71.254
X80.886Y-67.477
X82.066Y-50.324
X82.286Y-74.734
X82.556Y-71.224
X82.706Y-89.504
X83.836Y-60.214
X84.016Y-68.778
X84.166Y-60.874
X84.896Y-77.744
X85.046Y-62.254
X85.116Y-72.234
X85.581Y-77.084
X85.676Y-72.668
X85.766Y-66.271
X85.796Y-61.769
X86.261Y-63.442
X86.446Y-79.104
X86.466Y-66.294
X86.632Y-72.416
X86.976Y-55.874
X87.236Y-61.883
X87.266Y-60.244
X87.428Y-66.624
X87.468Y-56.641
X89.756Y-69.594
X89.776Y-61.862
X89.796Y-57.194
X89.803Y-61.143
X89.806Y-67.382
X89.82Y-58.532
X89.914Y-71.534
X89.936Y-72.234
X89.963Y-73.994
X90.055Y-65.169
X90.226Y-59.324
X90.229Y-70.12
X90.276Y-63.344
X90.404Y-68.469
X90.534Y-73.59
X90.586Y-65.625
X90.626Y-72.405
X90.674Y-71.674
X90.896Y-57.684
X90.906Y-59.944
X90.916Y-56.744
X90.971Y-70.282
X90.976Y-65.024
X90.983Y-64.315
X90.998Y-69.519
X91.006Y-73.052
X91.045Y-63.163
X91.049Y-71.036
X91.056Y-59.154
X91.076Y-67.538
X91.076Y-76.443
X91.076Y-61.707
X91.076Y-60.709
X92.076Y-82.854
X93.376Y-64.484
X93.496Y-71.164
X93.506Y-70.324
X93.532Y-73.04
X93.566Y-74.814
X93.566Y-62.04
X93.63Y-68.378
X93.657Y-61.307
X93.696Y-62.874
X93.696Y-63.674
X93.748Y-74.077
X93.832Y-65.838
X93.971Y-66.594
X94.076Y-69.414
X94.093Y-70.705
X94.426Y-68.054
X94.476Y-64.034
X94.576Y-65.794
X96.418Y-86.256
X96.979Y-82.142
X97.116Y-86.204
X97.136Y-55.464
X97.526Y-46.844
X97.556Y-85.527
X99.846Y-88.158
X100.066Y-46.814
X100.448Y-78.247
X101.316Y-51.744
X101.349Y-52.67
X102.163Y-53.906
X102.668Y-53.279
X102.883Y-54.001
X103.296Y-86.894
X103.316Y-76.154
X103.676Y-52.664
X103.982Y-61.523
X104.023Y-85.621
X104.386Y-58.284
X105.746Y-71.334
X106.136Y-49.264
X106.186Y-87.584
X106.336Y-65.214
X106.916Y-86.784
X106.936Y-85.061
X107.046Y-66.944
X107.546Y-83.844
X107.676Y-68.784
X107.946Y-56.314
X108.046Y-82.554
X108.316Y-63.974
X108.386Y-90.494
X109.281Y-88.369
X109.526Y-80.544
X109.976Y-79.914
X110.079Y-78.224
X110.116Y-69.194
X110.976Y-76.244
X111.626Y-87.668
X112.419Y-88.181
X113.906Y-89.904
X113.936Y-58.314
X115.206Y-86.774
X116.576Y-91.194
X116.996Y-92.124
X117.241Y-58.769
X117.626Y-52.704
X118.366Y-79.284
X118.426Y-87.684
X119.126Y-58.135
X119.446Y-87.534
X119.976Y-55.404
X120.436Y-60.854
X122.086Y-59.424
X122.746Y-67.224
X123.456Y-67.634
X123.456Y-74.244
X123.636Y-65.344
X123.856Y-71.284
X123.926Y-76.574
X124.346Y-66.294
X124.406Y-70.584
X124.616Y-67.691
X124.647Y-68.493
X124.816Y-75.484
X125.136Y-78.904
X125.796Y-53.894
X127.496Y-57.874
X127.866Y-75.774
X127.976Y-83.074
X129.656Y-72.714
X130.226Y-80.954
X131.046Y-47.634
X132.996Y-62.226
X134.288Y-76.012
X134.446Y-69.028
X134.526Y-53.084
X134.646Y-82.334
X134.996Y-79.514
X135.386Y-49.875
X135.626Y-77.234
X135.844Y-61.646
X135.938Y-72.266
X136.036Y-73.864
X136.076Y-62.494
X136.661Y-49.874
X136.786Y-69.204
X136.947Y-77.986
X137.042Y-77.25
X137.613Y-69.704
X137.614Y-80.633
X138.006Y-74.654
X138.116Y-69.201
X138.156Y-80.074
X138.256Y-61.014
X138.576Y-59.904
X139.566Y-44.964
X139.626Y-77.224
X140.053Y-80.484
X140.386Y-45.004
X140.779Y-80.504
X141.176Y-57.994
X141.556Y-78.324
X141.876Y-68.104
X142.136Y-60.454
X142.196Y-48.098
X142.586Y-79.234
X143.156Y-54.684
X143.573Y-78.494
X143.676Y-63.294
X144.356Y-76.344
T2
X47.136Y-93.684
X47.436Y-44.754
X48.016Y-43.744
X48.636Y-93.684
X48.936Y-44.754
X49.516Y-43.744
X50.136Y-93.684
X50.436Y-44.754
X50.936Y-92.674
X51.016Y-43.744
X51.636Y-93.684
X51.936Y-44.754
X52.436Y-92.674
X52.516Y-43.744
X53.136Y-93.684
X53.436Y-44.754
X54.016Y-43.744
X60.016Y-43.744
X60.716Y-44.754
X61.516Y-43.744
X62.136Y-93.684
X62.216Y-44.754
X63.016Y-43.744
X63.636Y-93.684
X63.716Y-44.754
X64.516Y-43.744
X65.136Y-93.684
X65.216Y-44.754
X66.016Y-43.744
X66.636Y-93.684
X66.716Y-44.754
X67.296Y-43.744
X68.136Y-93.684
X68.216Y-44.754
X69.636Y-93.684
X69.716Y-44.754
X71.136Y-93.684
X71.216Y-44.754
X72.636Y-93.684
X72.716Y-44.754
X74.136Y-93.684
X74.216Y-44.754
X75.636Y-93.684
X75.716Y-44.754
X77.136Y-93.684
X77.216Y-44.754
X78.636Y-93.684
X78.716Y-44.754
X80.136Y-93.684
X80.216Y-44.754
X80.716Y-82.884
X81.636Y-93.684
X81.716Y-44.754
X82.336Y-94.694
X82.356Y-43.744
X83.136Y-93.684
X83.216Y-44.754
X83.836Y-94.694
X83.856Y-43.744
X84.636Y-93.684
X84.716Y-44.754
X85.336Y-94.694
X85.356Y-43.744
X86.136Y-93.684
X86.216Y-44.754
X86.836Y-94.694
X86.856Y-43.744
X87.636Y-93.684
X87.716Y-44.754
X88.336Y-94.694
X88.356Y-43.744
X94.336Y-94.694
X94.356Y-43.744
X94.426Y-54.614
X94.426Y-56.114
X95.436Y-44.754
X95.436Y-46.254
X95.436Y-47.754
X95.436Y-49.254
X95.436Y-55.254
X95.436Y-56.754
X95.436Y-59.754
X95.436Y-61.254
X95.436Y-62.754
X95.436Y-64.254
X95.436Y-65.754
X95.436Y-67.254
X95.436Y-68.754
X95.436Y-70.254
X95.436Y-73.254
X95.436Y-74.754
X95.436Y-82.254
X95.436Y-83.754
X95.446Y-78.594
X95.836Y-88.694
X95.836Y-90.194
X95.836Y-91.694
X95.836Y-93.194
X95.836Y-94.694
X95.856Y-43.744
X97.336Y-94.694
X98.836Y-94.694
X99.016Y-43.744
X99.936Y-44.754
X100.336Y-94.694
X100.516Y-43.744
X101.436Y-44.754
X101.836Y-94.694
X102.016Y-43.744
X102.936Y-44.754
X103.336Y-94.694
X103.516Y-43.744
X104.436Y-44.754
X104.836Y-94.694
X105.016Y-43.744
X105.936Y-44.754
X106.336Y-94.694
X106.516Y-43.744
X107.436Y-44.754
X107.836Y-94.694
X108.016Y-43.744
X108.936Y-44.754
X109.336Y-94.694
X109.516Y-43.744
X110.436Y-44.754
X110.836Y-94.694
X111.016Y-43.744
X111.936Y-44.754
X112.336Y-94.694
X112.516Y-43.744
X113.436Y-44.754
X113.836Y-94.694
X115.336Y-94.694
X116.836Y-94.694
X117.136Y-43.744
X117.896Y-44.754
X118.636Y-43.744
X123.666Y-43.744
X125.166Y-43.744
X126.666Y-43.744
X128.166Y-43.744
X128.986Y-90.004
X129.666Y-43.744
X129.686Y-88.994
X130.486Y-90.004
X131.166Y-43.744
X131.186Y-88.994
X131.986Y-90.004
X132.566Y-88.994
X132.666Y-43.744
X133.486Y-90.004
X134.066Y-88.994
X134.106Y-43.744
X134.986Y-90.004
X135.566Y-88.994
X136.486Y-90.004
X137.066Y-88.994
X137.166Y-43.744
X137.986Y-90.004
X138.666Y-43.744
X140.166Y-43.744
X140.806Y-89.754
X141.386Y-88.744
X141.666Y-43.744
X142.306Y-89.754
X142.886Y-88.744
X143.166Y-43.744
X143.806Y-89.754
X144.386Y-88.744
X144.666Y-43.744
X145.306Y-89.754
X145.886Y-43.744
X145.886Y-45.244
X145.886Y-46.744
X145.886Y-48.244
X145.886Y-49.744
X145.886Y-51.244
X145.886Y-52.744
X145.886Y-54.244
X145.886Y-55.744
X145.886Y-57.244
X145.886Y-58.744
X145.886Y-60.244
X145.886Y-61.744
X145.886Y-63.244
X145.886Y-64.744
X145.886Y-66.244
X145.886Y-67.744
X145.886Y-69.244
X145.886Y-70.744
X145.886Y-72.244
X145.886Y-73.744
X145.886Y-75.244
X145.886Y-76.744
X145.886Y-78.244
X145.886Y-79.744
X145.886Y-81.244
X145.886Y-82.744
X145.886Y-84.244
X145.886Y-85.744
X145.886Y-87.244
X145.886Y-88.744
T3
X52.327Y-56.9
X52.496Y-68.624
X52.594Y-74.336
X52.797Y-79.855
X52.806Y-61.836
X52.957Y-78.6
X53.749Y-86.534
X55.136Y-86.534
X55.376Y-84.154
X61.936Y-82.544
X62.476Y-80.199
X90.606Y-79.249
X93.935Y-82.874
X94.328Y-72.359
X99.306Y-83.934
X100.686Y-83.944
X102.856Y-90.804
X109.136Y-53.894
X109.246Y-58.954
X110.096Y-58.104
X110.916Y-67.914
X111.316Y-62.204
X111.553Y-77.294
X111.553Y-79.144
X111.553Y-81.524
X111.583Y-83.434
X113.406Y-75.134
X116.306Y-93.424
X116.476Y-61.534
X116.476Y-62.784
X117.386Y-76.534
X117.751Y-66.984
X118.976Y-66.984
X119.286Y-76.564
X120.696Y-66.994
X120.726Y-53.724
X122.036Y-76.444
X124.066Y-55.814
X132.816Y-71.784
X134.076Y-49.804
X136.206Y-58.704
X137.926Y-49.774
X139.136Y-71.954
X141.716Y-83.524
X143.236Y-60.464
T4
X97.516Y-44.224
X97.516Y-51.844
X100.056Y-51.844
X102.596Y-51.844
X105.136Y-51.844
X107.676Y-51.844
X110.216Y-51.844
X112.756Y-51.844
X115.296Y-44.224
X115.296Y-51.844
T5
X59.576Y-54.259
X59.576Y-84.209
X64.451Y-89.084
X84.401Y-89.084
X91.576Y-54.259
X91.576Y-84.209
X100.206Y-59.614
X100.206Y-62.154
X100.206Y-64.694
X100.206Y-67.234
X100.206Y-69.774
X100.206Y-72.314
X100.206Y-74.854
X102.746Y-59.614
X102.746Y-62.154
X102.746Y-64.694
X102.746Y-67.234
X102.746Y-69.774
X102.746Y-72.314
X102.746Y-74.854
X126.456Y-47.539
X126.456Y-50.079
X126.456Y-52.619
X126.456Y-55.159
X126.456Y-61.509
X126.456Y-64.049
X126.456Y-66.589
X126.456Y-69.129
X126.456Y-75.479
X126.456Y-78.019
X126.456Y-80.559
X126.456Y-83.099
X128.996Y-48.809
X128.996Y-51.349
X128.996Y-53.889
X128.996Y-56.429
X128.996Y-62.779
X128.996Y-65.319
X128.996Y-67.859
X128.996Y-70.399
X128.996Y-76.749
X128.996Y-79.289
X128.996Y-81.829
X128.996Y-84.369
T6
X125.186Y-58.969
X125.186Y-72.939
X139.026Y-88.374
T7
X127.026Y-92.334
X132.526Y-92.334
T8
X49.036Y-47.934
X49.036Y-90.534
T9
X139.826Y-92.334
T10
X57.426Y-47.234
X57.426Y-91.234
X91.426Y-47.234
X91.426Y-91.234
X121.426Y-47.234
X121.426Y-91.234
M30
