%TF.GenerationSoftware,KiCad,Pcbnew,8.0.1-8.0.1-1~ubuntu22.04.1*%
%TF.CreationDate,2024-03-27T04:29:35+01:00*%
%TF.ProjectId,som-exp-carrier,736f6d2d-6578-4702-9d63-617272696572,v1.0*%
%TF.SameCoordinates,Original*%
%TF.FileFunction,Paste,Bot*%
%TF.FilePolarity,Positive*%
%FSLAX46Y46*%
G04 Gerber Fmt 4.6, Leading zero omitted, Abs format (unit mm)*
G04 Created by KiCad (PCBNEW 8.0.1-8.0.1-1~ubuntu22.04.1) date 2024-03-27 04:29:35*
%MOMM*%
%LPD*%
G01*
G04 APERTURE LIST*
G04 Aperture macros list*
%AMRoundRect*
0 Rectangle with rounded corners*
0 $1 Rounding radius*
0 $2 $3 $4 $5 $6 $7 $8 $9 X,Y pos of 4 corners*
0 Add a 4 corners polygon primitive as box body*
4,1,4,$2,$3,$4,$5,$6,$7,$8,$9,$2,$3,0*
0 Add four circle primitives for the rounded corners*
1,1,$1+$1,$2,$3*
1,1,$1+$1,$4,$5*
1,1,$1+$1,$6,$7*
1,1,$1+$1,$8,$9*
0 Add four rect primitives between the rounded corners*
20,1,$1+$1,$2,$3,$4,$5,0*
20,1,$1+$1,$4,$5,$6,$7,0*
20,1,$1+$1,$6,$7,$8,$9,0*
20,1,$1+$1,$8,$9,$2,$3,0*%
G04 Aperture macros list end*
%ADD10RoundRect,0.250000X-0.450000X0.262500X-0.450000X-0.262500X0.450000X-0.262500X0.450000X0.262500X0*%
%ADD11RoundRect,0.250000X-0.262500X-0.450000X0.262500X-0.450000X0.262500X0.450000X-0.262500X0.450000X0*%
%ADD12RoundRect,0.250000X0.250000X0.475000X-0.250000X0.475000X-0.250000X-0.475000X0.250000X-0.475000X0*%
%ADD13R,0.450000X1.475000*%
%ADD14RoundRect,0.250000X-0.250000X-0.475000X0.250000X-0.475000X0.250000X0.475000X-0.250000X0.475000X0*%
%ADD15RoundRect,0.250000X-0.475000X0.250000X-0.475000X-0.250000X0.475000X-0.250000X0.475000X0.250000X0*%
%ADD16R,0.650000X1.528000*%
%ADD17RoundRect,0.250000X0.450000X-0.262500X0.450000X0.262500X-0.450000X0.262500X-0.450000X-0.262500X0*%
%ADD18RoundRect,0.250000X0.625000X-0.312500X0.625000X0.312500X-0.625000X0.312500X-0.625000X-0.312500X0*%
%ADD19R,1.475000X0.450000*%
%ADD20R,0.558000X1.454899*%
%ADD21R,1.528000X0.650000*%
%ADD22R,2.200001X0.599999*%
%ADD23RoundRect,0.250000X0.262500X0.450000X-0.262500X0.450000X-0.262500X-0.450000X0.262500X-0.450000X0*%
%ADD24RoundRect,0.250000X0.475000X-0.250000X0.475000X0.250000X-0.475000X0.250000X-0.475000X-0.250000X0*%
%ADD25R,1.200000X0.450000*%
G04 APERTURE END LIST*
D10*
%TO.C,R21*%
X131225969Y-58521531D03*
X131225969Y-60346531D03*
%TD*%
D11*
%TO.C,R47*%
X107063469Y-49724031D03*
X108888469Y-49724031D03*
%TD*%
D12*
%TO.C,C5*%
X115295969Y-88794031D03*
X113395969Y-88794031D03*
%TD*%
D11*
%TO.C,R29*%
X128513469Y-45934031D03*
X130338469Y-45934031D03*
%TD*%
D12*
%TO.C,C10*%
X112145969Y-75074031D03*
X110245969Y-75074031D03*
%TD*%
D10*
%TO.C,R20*%
X104285969Y-87921531D03*
X104285969Y-89746531D03*
%TD*%
D12*
%TO.C,C18*%
X113325969Y-60434031D03*
X111425969Y-60434031D03*
%TD*%
D10*
%TO.C,R45*%
X115045969Y-48051531D03*
X115045969Y-49876531D03*
%TD*%
D12*
%TO.C,C6*%
X111285969Y-89794031D03*
X109385969Y-89794031D03*
%TD*%
D10*
%TO.C,R27*%
X141625969Y-45221531D03*
X141625969Y-47046531D03*
%TD*%
%TO.C,R22*%
X128925969Y-58521531D03*
X128925969Y-60346531D03*
%TD*%
D13*
%TO.C,U1*%
X142750969Y-81862031D03*
X142100969Y-81862031D03*
X141450969Y-81862031D03*
X140800969Y-81862031D03*
X140150969Y-81862031D03*
X139500969Y-81862031D03*
X138850969Y-81862031D03*
X138200969Y-81862031D03*
X137550969Y-81862031D03*
X136900969Y-81862031D03*
X136250969Y-81862031D03*
X135600969Y-81862031D03*
X135600969Y-75986031D03*
X136250969Y-75986031D03*
X136900969Y-75986031D03*
X137550969Y-75986031D03*
X138200969Y-75986031D03*
X138850969Y-75986031D03*
X139500969Y-75986031D03*
X140150969Y-75986031D03*
X140800969Y-75986031D03*
X141450969Y-75986031D03*
X142100969Y-75986031D03*
X142750969Y-75986031D03*
%TD*%
D14*
%TO.C,C14*%
X142309969Y-58934031D03*
X144209969Y-58934031D03*
%TD*%
D11*
%TO.C,R42*%
X120553469Y-65084031D03*
X122378469Y-65084031D03*
%TD*%
D15*
%TO.C,C1*%
X144525969Y-77384031D03*
X144525969Y-79284031D03*
%TD*%
D16*
%TO.C,U7*%
X134120969Y-51343031D03*
X135390969Y-51343031D03*
X136660969Y-51343031D03*
X137930969Y-51343031D03*
X137930969Y-56765031D03*
X136660969Y-56765031D03*
X135390969Y-56765031D03*
X134120969Y-56765031D03*
%TD*%
D17*
%TO.C,R49*%
X104105969Y-56146531D03*
X104105969Y-54321531D03*
%TD*%
%TO.C,R6*%
X144575969Y-75266531D03*
X144575969Y-73441531D03*
%TD*%
D18*
%TO.C,RSENSE1*%
X112325969Y-58296531D03*
X112325969Y-55371531D03*
%TD*%
D10*
%TO.C,R52*%
X98115969Y-47831531D03*
X98115969Y-49656531D03*
%TD*%
D12*
%TO.C,C17*%
X117955969Y-65054031D03*
X116055969Y-65054031D03*
%TD*%
D19*
%TO.C,U5*%
X115249969Y-75534031D03*
X115249969Y-74884031D03*
X115249969Y-74234031D03*
X115249969Y-73584031D03*
X115249969Y-72934031D03*
X115249969Y-72284031D03*
X115249969Y-71634031D03*
X115249969Y-70984031D03*
X115249969Y-70334031D03*
X115249969Y-69684031D03*
X115249969Y-69034031D03*
X115249969Y-68384031D03*
X121125969Y-68384031D03*
X121125969Y-69034031D03*
X121125969Y-69684031D03*
X121125969Y-70334031D03*
X121125969Y-70984031D03*
X121125969Y-71634031D03*
X121125969Y-72284031D03*
X121125969Y-72934031D03*
X121125969Y-73584031D03*
X121125969Y-74234031D03*
X121125969Y-74884031D03*
X121125969Y-75534031D03*
%TD*%
D17*
%TO.C,R8*%
X131225969Y-67746531D03*
X131225969Y-65921531D03*
%TD*%
D10*
%TO.C,R26*%
X144125969Y-45221531D03*
X144125969Y-47046531D03*
%TD*%
D14*
%TO.C,C12*%
X140835969Y-73234031D03*
X142735969Y-73234031D03*
%TD*%
D17*
%TO.C,R7*%
X131225969Y-71346531D03*
X131225969Y-69521531D03*
%TD*%
D10*
%TO.C,R51*%
X100265969Y-47831531D03*
X100265969Y-49656531D03*
%TD*%
D20*
%TO.C,U10*%
X144430969Y-56755379D03*
X143160969Y-56755379D03*
X141890969Y-56755379D03*
X140620969Y-56755379D03*
X140620969Y-51312683D03*
X141890969Y-51312683D03*
X143160969Y-51312683D03*
X144430969Y-51312683D03*
%TD*%
D21*
%TO.C,U9*%
X134559969Y-62439031D03*
X134559969Y-61169031D03*
X134559969Y-59899031D03*
X134559969Y-58629031D03*
X139981969Y-58629031D03*
X139981969Y-59899031D03*
X139981969Y-61169031D03*
X139981969Y-62439031D03*
%TD*%
D20*
%TO.C,U8*%
X143950969Y-70985379D03*
X142680969Y-70985379D03*
X141410969Y-70985379D03*
X140140969Y-70985379D03*
X140140969Y-65542683D03*
X141410969Y-65542683D03*
X142680969Y-65542683D03*
X143950969Y-65542683D03*
%TD*%
D10*
%TO.C,R23*%
X131225969Y-62321531D03*
X131225969Y-64146531D03*
%TD*%
D12*
%TO.C,C4*%
X111265969Y-91914031D03*
X109365969Y-91914031D03*
%TD*%
%TO.C,C11*%
X132925969Y-49034031D03*
X131025969Y-49034031D03*
%TD*%
D17*
%TO.C,R48*%
X106465969Y-56146531D03*
X106465969Y-54321531D03*
%TD*%
D10*
%TO.C,R50*%
X102645969Y-47831531D03*
X102645969Y-49656531D03*
%TD*%
D22*
%TO.C,U13*%
X120525969Y-56229031D03*
X120525969Y-57499031D03*
X120525969Y-58769031D03*
X120525969Y-60039031D03*
X115725969Y-60039031D03*
X115725969Y-58769031D03*
X115725969Y-57499031D03*
X115725969Y-56229031D03*
%TD*%
D23*
%TO.C,R5*%
X107088469Y-47774031D03*
X105263469Y-47774031D03*
%TD*%
D12*
%TO.C,C7*%
X139115969Y-73404031D03*
X137215969Y-73404031D03*
%TD*%
D19*
%TO.C,U2*%
X121125969Y-77369031D03*
X121125969Y-78019031D03*
X121125969Y-78669031D03*
X121125969Y-79319031D03*
X121125969Y-79969031D03*
X121125969Y-80619031D03*
X121125969Y-81269031D03*
X121125969Y-81919031D03*
X121125969Y-82569031D03*
X121125969Y-83219031D03*
X115249969Y-83219031D03*
X115249969Y-82569031D03*
X115249969Y-81919031D03*
X115249969Y-81269031D03*
X115249969Y-80619031D03*
X115249969Y-79969031D03*
X115249969Y-79319031D03*
X115249969Y-78669031D03*
X115249969Y-78019031D03*
X115249969Y-77369031D03*
%TD*%
D17*
%TO.C,R17*%
X131225969Y-53146531D03*
X131225969Y-51321531D03*
%TD*%
D11*
%TO.C,R46*%
X111063469Y-49734031D03*
X112888469Y-49734031D03*
%TD*%
D24*
%TO.C,C2*%
X113025969Y-79224031D03*
X113025969Y-77324031D03*
%TD*%
D17*
%TO.C,R13*%
X131225969Y-56746531D03*
X131225969Y-54921531D03*
%TD*%
D11*
%TO.C,R33*%
X120543469Y-62274031D03*
X122368469Y-62274031D03*
%TD*%
D25*
%TO.C,U3*%
X113155969Y-92489031D03*
X113155969Y-91839031D03*
X113155969Y-91189031D03*
X113155969Y-90539031D03*
X115655969Y-90539031D03*
X115655969Y-91189031D03*
X115655969Y-91839031D03*
X115655969Y-92489031D03*
%TD*%
D15*
%TO.C,C9*%
X123325969Y-75604031D03*
X123325969Y-77504031D03*
%TD*%
%TO.C,C3*%
X113025969Y-81584031D03*
X113025969Y-83484031D03*
%TD*%
D16*
%TO.C,U4*%
X137930969Y-71055031D03*
X136660969Y-71055031D03*
X135390969Y-71055031D03*
X134120969Y-71055031D03*
X134120969Y-65633031D03*
X135390969Y-65633031D03*
X136660969Y-65633031D03*
X137930969Y-65633031D03*
%TD*%
D14*
%TO.C,C13*%
X142309969Y-62034031D03*
X144209969Y-62034031D03*
%TD*%
M02*
